<?xml version="1.0" encoding="UTF-8"?>
<svg version="1.1" xmlns="http://www.w3.org/2000/svg" width="640" height="640">
<path d="M0 0 C21.66150227 14.65426525 30.52976894 42.50453797 35.5390625 66.9140625 C36.67113047 72.89978717 37.31095315 78.84024284 37.4375 84.9375 C38.31148437 84.50179687 39.18546875 84.06609375 40.0859375 83.6171875 C72.3029905 67.87769431 109.38121196 63.03368191 143.88671875 74.36328125 C150.5147771 76.66621251 156.84045622 79.37406386 162.8359375 83.0546875 C164.42462831 84.09841283 164.42462831 84.09841283 166.4375 83.9375 C166.52725098 83.30996826 166.61700195 82.68243652 166.70947266 82.03588867 C170.96779877 52.92495319 178.62755086 21.54139053 202.4375 1.9375 C210.12127864 -3.00623618 219.20219752 -6.30213792 228.4375 -5.0625 C236.83190239 -3.18760809 243.64969028 -0.3265157 250.4375 4.9375 C251.9534375 6.0203125 251.9534375 6.0203125 253.5 7.125 C273.98042616 25.00294107 279.15420025 57.0017799 281.08984375 82.5859375 C282.47303467 104.73821764 281.40286618 126.85849275 279.4375 148.9375 C280.05085205 149.23011719 280.6642041 149.52273437 281.29614258 149.82421875 C301.60199491 160.38113206 315.09924109 187.2259388 321.90283203 208.14379883 C332.23781793 241.6472892 332.39542338 279.78121174 315.75 311.3125 C314.19210491 314.08447885 312.75170485 316.57543613 310.66796875 318.9765625 C309.19771905 320.89712751 309.19771905 320.89712751 309.5859375 323.375 C310.49535917 326.11160833 311.66006877 328.41762357 313.0625 330.9375 C319.89246002 344.28472308 324.17829282 359.1483822 326.4375 373.9375 C326.62054687 375.12988281 326.80359375 376.32226562 326.9921875 377.55078125 C328.94106578 393.80893848 328.29733223 411.01793198 324.4375 426.9375 C324.26009277 427.69450195 324.08268555 428.45150391 323.89990234 429.23144531 C321.85914794 437.63332987 319.46888935 445.37577377 315.09765625 452.8828125 C307.79898477 464.84550313 307.79898477 464.84550313 307.3046875 478.34765625 C308.92179175 483.69669736 311.07777787 488.80289994 313.27392578 493.93603516 C315.09731557 498.63950851 316.02163205 503.41725358 316.875 508.375 C317.02517578 509.19645508 317.17535156 510.01791016 317.33007812 510.86425781 C320.59238822 529.5421318 324.56890792 559.39940824 313.4375 575.9375 C309.38390922 579.88715256 305.68943894 581.72898713 300.0625 582.25 C294.62402141 581.78116564 290.90340392 580.13687593 286.6875 576.6875 C282.23370603 571.24397403 281.16332188 567.92475206 281.84375 561.015625 C284.36360522 532.09978243 280.74979117 506.63251672 269.4375 479.9375 C267.1001616 474.40806839 266.20346032 470.04371395 268.46484375 464.3515625 C270.37176654 460.49545825 272.43842556 456.73906551 274.52441406 452.97753906 C279.95118616 443.15168692 284.39970378 433.80208885 287.4375 422.9375 C287.75589844 421.926875 288.07429688 420.91625 288.40234375 419.875 C296.95618824 388.34008945 286.64155368 358.22200228 271.4375 330.9375 C270.78007813 329.79861328 270.78007813 329.79861328 270.109375 328.63671875 C267.56193901 324.01724856 266.45968668 320.20739918 267.4375 314.9375 C268.97626152 309.7199775 271.54790592 306.68278023 275.75 303.3125 C285.93127523 294.77498914 290.25945548 279.78850387 291.4375 266.9375 C292.06543976 252.79915756 292.42709617 238.62069327 288.4375 224.9375 C287.90962891 223.06964844 287.90962891 223.06964844 287.37109375 221.1640625 C281.12824093 200.29819217 268.61884877 182.59677321 249.4375 171.9375 C233.38474473 163.33609829 216.69174329 161.78742671 198.81640625 161.5078125 C191.43213003 161.30340347 186.36812295 160.86812295 180.9375 155.4375 C178.84455073 152.750338 177.31840466 149.89319048 175.75 146.875 C166.09935794 128.71199674 151.24413687 115.57065576 131.6875 109.0625 C129.27803536 108.33004248 126.86193526 107.61876907 124.4375 106.9375 C123.62410156 106.69128906 122.81070313 106.44507813 121.97265625 106.19140625 C99.26748981 100.40537965 72.81909362 106.88866313 52.9609375 118.30859375 C48.49824435 121.18931053 44.43517875 124.44724531 40.4375 127.9375 C39.79941406 128.48019531 39.16132813 129.02289063 38.50390625 129.58203125 C32.01926659 135.51785954 27.95171141 143.38156306 24.5 151.375 C22.36875784 155.78446654 18.85405239 158.02119329 14.4375 159.9375 C10.79870149 160.92181722 7.22003964 161.08910204 3.4621582 161.22753906 C-23.42974068 162.23198049 -48.43059812 169.29977801 -67.5625 188.9375 C-68.15417969 189.52015625 -68.74585938 190.1028125 -69.35546875 190.703125 C-86.2977853 208.69014204 -89.39986019 233.79924033 -88.9140625 257.33984375 C-88.2055884 275.11540792 -82.83316295 292.62764141 -70.8125 306.0625 C-67.35015227 310.48661098 -66.44840941 314.08884568 -66.79296875 319.671875 C-67.42558451 324.1990315 -69.16383402 327.78821852 -71.25 331.8125 C-86.43920115 362.77772678 -92.11242722 400.68149749 -81.25 433.9375 C-77.65173917 443.91839015 -72.61805657 452.21326587 -66.19921875 460.625 C-63.05363137 465.06936212 -62.87309844 469.67409352 -63.5625 474.9375 C-64.99823897 479.50028579 -66.87197727 483.85395127 -68.75 488.25 C-74.82441947 502.91778407 -80.67686772 518.72333264 -80.6953125 534.81640625 C-80.69660156 535.90244141 -80.69789063 536.98847656 -80.69921875 538.10742188 C-80.69341797 539.78674805 -80.69341797 539.78674805 -80.6875 541.5 C-80.69136719 542.62341797 -80.69523437 543.74683594 -80.69921875 544.90429688 C-80.69728516 546.53141602 -80.69728516 546.53141602 -80.6953125 548.19140625 C-80.69362061 549.66589233 -80.69362061 549.66589233 -80.69189453 551.17016602 C-80.5658296 553.86629052 -80.12843214 556.30378047 -79.5625 558.9375 C-79.03934245 565.32002213 -79.9228903 569.60256721 -83.5625 574.9375 C-87.45812974 578.83312974 -91.37665148 580.89072572 -96.95703125 580.97265625 C-102.51183763 580.63120638 -106.27203423 579.71719604 -110.5625 575.9375 C-121.14800342 561.93082627 -118.90760756 538.15281618 -116.83862305 521.63574219 C-114.75694304 507.73786416 -110.87833309 493.482098 -105.27734375 480.59765625 C-103.64836168 476.57395512 -103.06687971 474.16550352 -104.5625 469.9375 C-105.85788507 467.21821943 -107.32000439 464.61508971 -108.8125 462 C-127.61380939 427.55134075 -126.73252726 384.95004295 -116.5625 347.9375 C-111.69759672 331.60186513 -111.69759672 331.60186513 -108.29296875 324.1640625 C-107.34006668 321.25949468 -107.60695052 319.83905437 -108.5625 316.9375 C-109.41527846 315.33981243 -110.27375686 313.74413485 -111.19067383 312.18237305 C-116.78909254 302.63061141 -119.9316232 292.64664082 -122.5625 281.9375 C-122.74184082 281.21256348 -122.92118164 280.48762695 -123.10595703 279.74072266 C-127.75721149 259.91169049 -127.35396468 237.6975758 -122.5625 217.9375 C-122.31306641 216.8861084 -122.31306641 216.8861084 -122.05859375 215.81347656 C-115.44298164 188.84873166 -99.69391395 163.82525614 -76.5625 147.9375 C-75.9025 147.9375 -75.2425 147.9375 -74.5625 147.9375 C-74.69527344 146.95136719 -74.82804687 145.96523437 -74.96484375 144.94921875 C-80.10397563 104.44761849 -82.30031093 51.16029677 -57.625 15.9375 C-43.03889634 -2.70029912 -21.91212934 -12.95780034 0 0 Z M-26.5625 33.9375 C-46.22432284 59.49786969 -42.84803695 101.89901442 -40.5625 131.9375 C-38.81839844 131.53917969 -38.81839844 131.53917969 -37.0390625 131.1328125 C-35.42233254 130.77397399 -33.80510465 130.41737469 -32.1875 130.0625 C-31.33784668 129.87469971 -30.48819336 129.68689941 -29.61279297 129.4934082 C-25.23088018 128.56564033 -20.93755993 127.81460374 -16.46875 127.47265625 C-15.2629126 127.37863525 -15.2629126 127.37863525 -14.03271484 127.28271484 C-12.50346223 127.17987316 -10.97202782 127.10463788 -9.43994141 127.06103516 C-6.52570063 126.86433565 -4.21749411 126.51330341 -1.98339844 124.54931641 C5.88442281 114.47974247 3.18823618 95.68449198 1.9765625 83.65234375 C-0.24223624 65.61735728 -5.29770673 42.44554533 -19.5625 29.9375 C-22.91781027 29.9375 -24.15890968 31.64316379 -26.5625 33.9375 Z M222.1875 32.9375 C205.41754407 50.18935121 201.66108818 79.38357015 201.40136719 102.40917969 C201.37098241 114.75231876 201.37098241 114.75231876 205.4375 125.9375 C207.5859962 126.48956867 207.5859962 126.48956867 210.1015625 126.5625 C211.05216553 126.62775879 212.00276855 126.69301758 212.98217773 126.76025391 C213.99868408 126.81874512 215.01519043 126.87723633 216.0625 126.9375 C225.7213357 127.61894465 234.97664333 128.87780696 244.4375 130.9375 C245.40637895 126.03679767 245.61239233 121.3473128 245.640625 116.375 C245.64763931 115.55471313 245.65465363 114.73442627 245.66188049 113.88928223 C245.67937823 111.23863238 245.6857374 108.58820557 245.6875 105.9375 C245.68817474 105.03555908 245.68884949 104.13361816 245.68954468 103.2043457 C245.902855 66.87600328 245.902855 66.87600328 230.6015625 35 C226.57051291 30.7919547 226.57051291 30.7919547 222.1875 32.9375 Z " fill="#000000" transform="translate(218.5625,32.0625)"/>
<path d="M0 0 C1.58249838 1.3519357 3.14508346 2.72750851 4.6875 4.125 C5.51765625 4.86234375 6.3478125 5.5996875 7.203125 6.359375 C19.56605348 17.96384161 28.80004119 33.55124481 29.92578125 50.76953125 C30.38437494 67.91928267 26.85350699 83.14554965 15.3125 96.375 C13.78685405 97.97377609 12.24609585 99.55832852 10.6875 101.125 C9.79998047 102.06472656 9.79998047 102.06472656 8.89453125 103.0234375 C-1.11225492 112.78723328 -15.97282133 117.88046821 -29.3125 121.125 C-29.98458496 121.28871094 -30.65666992 121.45242188 -31.34912109 121.62109375 C-62.1111501 128.64909566 -98.83940485 125.92123396 -126.0625 109.31640625 C-140.85867453 99.33965876 -152.4487689 86.10370204 -156.8046875 68.4296875 C-159.74811497 49.27476722 -155.5501419 33.03993396 -144.28125 17.28515625 C-127.97155844 -3.78152868 -103.52020774 -15.57041914 -77.55859375 -19.43359375 C-50.47792848 -22.62843154 -21.83508471 -16.88807333 0 0 Z M-124.33203125 32.53125 C-131.3960828 41.78278891 -133.25179748 50.65498708 -132.3125 62.125 C-129.78153207 72.46581184 -122.91371432 81.05193813 -114.3125 87.125 C-90.50561073 101.19540588 -59.19887097 103.09497975 -32.5703125 96.38671875 C-19.07390152 92.55878932 -6.68581374 86.57191226 0.6875 74.125 C5.19675234 64.41684496 6.24708901 54.4785802 3.25 44.125 C-2.69573462 28.09462717 -15.68567562 18.5764011 -30.3125 11.125 C-62.49186059 -3.43949031 -101.51490304 6.36222508 -124.33203125 32.53125 Z " fill="#000000" transform="translate(383.3125,290.875)"/>
<path d="M0 0 C5.02557011 4.59398489 8.57415064 9.13269363 9.3359375 16.05078125 C9.44096382 24.82047902 8.2811306 29.98972927 2.75 36.75 C-3.88432947 42.17808775 -9.22184999 43.68915913 -17.87890625 43.37890625 C-24.0723223 42.62701469 -28.07818159 40.26316377 -32.3125 35.75 C-36.45082299 30.46151639 -38.59263322 24.87881783 -38.28515625 18.07421875 C-37.3340349 11.15578809 -34.98756148 5.87420781 -30 1 C-20.81009714 -5.44325774 -9.52730312 -6.33389226 0 0 Z " fill="#000000" transform="translate(218,280)"/>
<path d="M0 0 C6.12015366 5.69968509 9.34983051 10.92154702 10.02734375 19.2734375 C9.96687342 25.30319303 8.09636741 30.2391675 4.9375 35.3125 C-0.68106882 40.45289275 -6.31984661 43.26916278 -14 43.625 C-21.05369622 43.28047499 -26.78426665 41.12900196 -31.8828125 36.16796875 C-36.71139178 30.25470862 -38.30732447 24.55828763 -37.9375 17 C-36.90985551 9.29857231 -32.73908337 3.9232461 -26.7421875 -0.8125 C-18.69302145 -6.29892709 -7.87152005 -5.24768004 0 0 Z " fill="#000000" transform="translate(450,280)"/>
<path d="M0 0 C2.0360882 1.27754554 4.04109119 2.60699818 6 4 C10.02757055 4.39211447 10.02757055 4.39211447 12.75 2 C17.09409581 -0.67328973 18.96500027 -0.71928568 24 0 C27.64184981 2.55704348 28.77792202 4.22272709 30 8.5 C30 12.58464363 29.57248653 13.86478204 27 17 C26.44183594 17.35578125 25.88367188 17.7115625 25.30859375 18.078125 C23.02377197 19.58543957 21.60254774 20.75164944 20 23 C19.30908013 26.43323071 18.88137169 29.68617964 18.70678711 33.17504883 C18.4110789 38.02848273 17.45350623 40.55950133 14 44 C10.79826746 45.60086627 7.47422941 45.49917089 4 45 C1.1899654 43.20636089 -0.50940468 41.98119065 -2 39 C-2 37.17984456 -1.99848828 35.35966561 -1.98632812 33.53955078 C-1.9779707 26.44402698 -1.9779707 26.44402698 -5.03125 20.234375 C-7.27309187 18.3188772 -9.56561919 16.65725155 -12 15 C-13.55024464 11.89951072 -13.28992015 9.42105782 -13 6 C-9.30298192 0.33123894 -6.70067405 -0.5583895 0 0 Z " fill="#000000" transform="translate(311,324)"/>
</svg>
