<?xml version="1.0" encoding="UTF-8"?>
<svg version="1.1" xmlns="http://www.w3.org/2000/svg" width="512" height="512">
<path d="M0 0 C1.01790619 0.00215515 2.03581238 0.0043103 3.08456421 0.00653076 C17.69363523 0.05620146 32.02575853 0.30709809 46.375 3.3125 C47.34985352 3.51117676 48.32470703 3.70985352 49.32910156 3.91455078 C97.7109774 14.03517194 141.69928269 35.9516877 177.375 70.3125 C178.3640332 71.26068604 178.3640332 71.26068604 179.37304688 72.22802734 C188.86130305 81.37247479 197.6012044 90.66984009 205.375 101.3125 C206.23306152 102.46355017 207.09113451 103.61459177 207.94921875 104.765625 C213.98618723 112.95520396 219.3572246 121.46566042 224.375 130.3125 C224.92969971 131.28413086 224.92969971 131.28413086 225.49560547 132.27539062 C231.78761271 143.40173401 236.67187562 154.94031645 241.35791016 166.81933594 C242.32843522 169.19835704 243.3735183 171.52639546 244.44921875 173.859375 C246.52657511 178.48410552 247.99973737 183.18862971 249.375 188.0625 C249.72691406 189.24005859 249.72691406 189.24005859 250.0859375 190.44140625 C250.92629839 193.38266938 251.65628003 196.33904309 252.375 199.3125 C252.54409882 199.96424194 252.71319763 200.61598389 252.88742065 201.28747559 C257.07436821 217.7993419 257.02697821 234.37322442 256.95141602 251.28515625 C256.93769112 254.46332117 256.94456183 257.64028344 256.97192383 260.81835938 C257.24505366 292.63288058 252.72421426 322.13124662 239.375 351.3125 C238.77034343 352.70829914 238.16894518 354.10551298 237.5703125 355.50390625 C223.11701035 389.07465016 202.00488172 422.81469967 173.58984375 446.46484375 C171.84354723 447.9216308 170.13502023 449.42369359 168.44140625 450.94140625 C134.38977703 481.32243668 91.0910812 501.08317357 46.375 509.3125 C45.57433105 509.47331055 44.77366211 509.63412109 43.94873047 509.79980469 C15.88172956 515.289821 -17.62684244 515.06193715 -45.625 509.3125 C-46.63755859 509.11382324 -47.65011719 508.91514648 -48.69335938 508.71044922 C-101.01529748 498.24762906 -155.09357767 471.19899391 -189.77734375 429.52734375 C-191.2341308 427.78104723 -192.73619359 426.07252023 -194.25390625 424.37890625 C-231.23971005 382.92452306 -255.54948447 324.90004228 -255.828125 269.08203125 C-255.83518463 268.13709808 -255.84224426 267.19216492 -255.84951782 266.21859741 C-256.07729455 226.79542292 -256.07729455 226.79542292 -252.625 210.3125 C-252.42632324 209.33764648 -252.22764648 208.36279297 -252.02294922 207.35839844 C-241.90232806 158.9765226 -219.9858123 114.98821731 -185.625 79.3125 C-184.99287598 78.65314453 -184.36075195 77.99378906 -183.70947266 77.31445312 C-174.56502521 67.82619695 -165.26765991 59.0862956 -154.625 51.3125 C-153.47394983 50.45443848 -152.32290823 49.59636549 -151.171875 48.73828125 C-142.98224019 42.70072604 -134.47961724 37.31792698 -125.625 32.3125 C-124.91778809 31.9103125 -124.21057617 31.508125 -123.48193359 31.09375 C-100.34654164 18.0683259 -75.17537591 9.31948539 -49.1875 4 C-48.46860596 3.85264404 -47.74971191 3.70528809 -47.0090332 3.5534668 C-31.36274391 0.57960912 -15.88931954 -0.06050362 0 0 Z " fill="#EC1C24" transform="translate(255.625,-0.3125)"/>
<path d="M0 0 C0.33 0 0.66 0 1 0 C0.99333817 0.59007843 0.98667633 1.18015686 0.97981262 1.78811646 C0.91230517 8.05237246 0.86773346 14.31652178 0.83520508 20.58105469 C0.82032043 22.90433971 0.8000062 25.22759769 0.77368164 27.55078125 C0.60347187 42.98313379 1.39481238 57.78098721 4 73 C4.18296631 74.12180664 4.36593262 75.24361328 4.55444336 76.39941406 C12.48710621 121.95682975 35.49485371 169.29651039 68.82421875 201.75 C71 204 71 204 71 206 C76.48768776 203.04839771 81.25695634 199.62674883 86.125 195.75 C87.71799496 194.49643576 89.31177772 193.24387213 90.90625 191.9921875 C92.15148437 191.01330566 92.15148437 191.01330566 93.421875 190.01464844 C97.7945888 186.59763762 102.20850926 183.23512806 106.625 179.875 C107.51171387 179.20009521 108.39842773 178.52519043 109.31201172 177.82983398 C115.25390263 173.31344925 121.21809011 168.8277026 127.19506836 164.35791016 C134.05825423 159.21983514 140.85957966 154.00172328 147.66503906 148.78759766 C158.3721338 140.59046804 169.09233684 132.4100661 179.875 124.3125 C180.49834229 123.84384521 181.12168457 123.37519043 181.76391602 122.89233398 C182.90448698 122.03787762 184.05104554 121.19131491 185.20528072 120.35540885 C186.85086266 119.11263158 188.4038535 117.74967377 189.94377995 116.37815571 C194.99307572 112.81454737 200.37338251 113.32366105 206.34483337 113.39872742 C208.20977938 113.39231923 208.20977938 113.39231923 210.11240107 113.38578159 C213.55179704 113.37898234 216.98976262 113.39455637 220.42898524 113.41967189 C224.14191579 113.44130279 227.85480369 113.43395462 231.56777954 113.43016052 C237.99678404 113.42754118 244.42553444 113.44320309 250.85447502 113.47134972 C260.1495517 113.51201807 269.44450576 113.52501033 278.73966176 113.53128967 C293.82105832 113.54222763 308.9023195 113.57548828 323.98364258 113.62280273 C338.6320732 113.66871124 353.28046702 113.70409682 367.92895508 113.7253418 C368.83217567 113.72665541 369.73539627 113.72796903 370.66598719 113.72932246 C375.1972661 113.73584773 379.72854528 113.74216625 384.25982463 113.74838197 C421.83997866 113.80019946 459.41997878 113.88825115 497 114 C496.53769406 115.57892769 496.07232985 117.1569601 495.60571289 118.73461914 C495.34689835 119.61348282 495.0880838 120.4923465 494.82142639 121.39784241 C493.62051358 125.20215697 492.08361218 128.80779345 490.4375 132.4375 C489.92195557 133.58085815 489.92195557 133.58085815 489.39599609 134.74731445 C475.19584383 165.77809748 454.70085672 197.10774809 428.21484375 219.15234375 C426.46854723 220.6091308 424.76002023 222.11119359 423.06640625 223.62890625 C389.01477703 254.00993668 345.7160812 273.77067357 301 282 C300.19933105 282.16081055 299.39866211 282.32162109 298.57373047 282.48730469 C270.50672956 287.977321 236.99815756 287.74943715 209 282 C207.98744141 281.80132324 206.97488281 281.60264648 205.93164062 281.39794922 C153.60970252 270.93512906 99.53142233 243.88649391 64.84765625 202.21484375 C63.3908692 200.46854723 61.88880641 198.76002023 60.37109375 197.06640625 C23.31647916 155.53489863 -1.2538778 97.13777495 -1.1328125 41.171875 C-1.13376923 40.17923645 -1.13472595 39.1865979 -1.13571167 38.16387939 C-1.1363873 36.08321061 -1.13457642 34.00253964 -1.13037109 31.921875 C-1.1249911 28.74474364 -1.13034882 25.56775216 -1.13671875 22.390625 C-1.1360583 20.35937469 -1.13477784 18.32812447 -1.1328125 16.296875 C-1.13483673 15.35301941 -1.13686096 14.40916382 -1.13894653 13.43670654 C-1.12264508 8.84323788 -0.9429978 4.51927247 0 0 Z " fill="#009145" transform="translate(1,227)"/>
<path d="M0 0 C1.01790619 0.00215515 2.03581238 0.0043103 3.08456421 0.00653076 C17.69363523 0.05620146 32.02575853 0.30709809 46.375 3.3125 C47.34985352 3.51117676 48.32470703 3.70985352 49.32910156 3.91455078 C97.7109774 14.03517194 141.69928269 35.9516877 177.375 70.3125 C178.3640332 71.26068604 178.3640332 71.26068604 179.37304688 72.22802734 C188.86130305 81.37247479 197.6012044 90.66984009 205.375 101.3125 C206.23306152 102.46355017 207.09113451 103.61459177 207.94921875 104.765625 C213.98618723 112.95520396 219.3572246 121.46566042 224.375 130.3125 C224.92969971 131.28413086 224.92969971 131.28413086 225.49560547 132.27539062 C242.375 162.1237256 242.375 162.1237256 242.375 171.3125 C204.17454682 171.58750846 165.97424343 171.79878847 127.77299964 171.92528395 C123.25719346 171.94029141 118.74138922 171.95582338 114.22558594 171.97167969 C112.8771329 171.97640128 112.8771329 171.97640128 111.50143838 171.98121825 C96.96872537 172.0333535 82.43658529 172.12792268 67.90421152 172.23833355 C52.97896624 172.35077873 38.05401982 172.41725282 23.12836838 172.44156194 C13.92715284 172.45798145 4.72755694 172.50972621 -4.47315967 172.6074976 C-10.79303568 172.67121138 -17.11208149 172.69003896 -23.43225491 172.67451653 C-27.07272468 172.66687186 -30.71037695 172.67810133 -34.35033798 172.7429657 C-49.48153439 172.9994714 -61.25503535 173.09194003 -72.68473816 162.2584877 C-73.18622596 161.75112564 -73.68771376 161.24376357 -74.20439816 160.7210269 C-76.15901037 158.78302866 -78.31508192 157.16659691 -80.52734375 155.53515625 C-81.87338875 154.48303991 -83.21846217 153.42967922 -84.5625 152.375 C-92.50091914 146.17480753 -100.48903247 140.04253639 -108.49853516 133.93457031 C-112.1261138 131.16744832 -115.75061415 128.39630188 -119.375 125.625 C-120.08664307 125.08093506 -120.79828613 124.53687012 -121.53149414 123.97631836 C-126.7840683 119.95921482 -132.02600477 115.92851747 -137.265625 111.89453125 C-143.29813507 107.25427816 -149.34880069 102.63768576 -155.39599609 98.01660156 C-157.66711344 96.28030374 -159.93720934 94.5426784 -162.20703125 92.8046875 C-162.95758789 92.23016846 -163.70814453 91.65564941 -164.48144531 91.0637207 C-165.90158985 89.97660917 -167.32152823 88.88922825 -168.74121094 87.80151367 C-173.34768283 84.27627994 -177.97870954 80.78507194 -182.625 77.3125 C-167.02431288 58.59167545 -146.74714506 44.25263834 -125.625 32.3125 C-124.91778809 31.9103125 -124.21057617 31.508125 -123.48193359 31.09375 C-100.34654164 18.0683259 -75.17537591 9.31948539 -49.1875 4 C-48.46860596 3.85264404 -47.74971191 3.70528809 -47.0090332 3.5534668 C-31.36274391 0.57960912 -15.88931954 -0.06050362 0 0 Z " fill="#000000" transform="translate(255.625,-0.3125)"/>
<path d="M0 0 C1.02103194 2.74271337 1.94498781 5.45850869 2.8125 8.25 C3.07313232 9.08176758 3.33376465 9.91353516 3.60229492 10.77050781 C7.94243859 24.99953637 12.03115309 40.06683448 12.19287109 55.00732422 C12.20104858 55.67044617 12.20922607 56.33356812 12.21765137 57.01678467 C12.24230122 59.1960772 12.25898875 61.37530442 12.2734375 63.5546875 C12.27876118 64.31140873 12.28408485 65.06812996 12.28956985 65.84778214 C12.31624205 69.87067902 12.33561653 73.89354585 12.35009766 77.91650391 C12.36329299 81.19023481 12.39088022 84.4633209 12.43212891 87.73681641 C12.78472185 116.38826349 9.74766042 143.13084896 -1 170 C-100.99 169.67 -200.98 169.34 -304 169 C-300.78106719 165.78106719 -298.03128758 163.1152592 -294.48046875 160.43359375 C-293.20671387 159.46740112 -293.20671387 159.46740112 -291.90722656 158.48168945 C-291.0097168 157.80710693 -290.11220703 157.13252441 -289.1875 156.4375 C-287.78516113 155.37631958 -287.78516113 155.37631958 -286.35449219 154.29370117 C-280.18630057 149.63067897 -274.00020023 144.99133344 -267.80810547 140.36010742 C-260.94358709 135.22166847 -254.14143853 130.00250339 -247.33496094 124.78759766 C-236.1180697 116.20017842 -224.88987472 107.62800009 -213.56567383 99.18237305 C-210.41811794 96.83097563 -207.29097523 94.45849597 -204.1953125 92.0390625 C-203.59267578 91.56903809 -202.99003906 91.09901367 -202.36914062 90.61474609 C-201.23684887 89.72875633 -200.10773765 88.8386811 -198.98242188 87.94384766 C-195.21995765 85 -195.21995765 85 -193 85 C-193 84.34 -193 83.68 -193 83 C-193.51304687 82.77828125 -194.02609375 82.5565625 -194.5546875 82.328125 C-197.996849 80.45858041 -201.01026203 78.116456 -204.125 75.75 C-204.82657227 75.22059814 -205.52814453 74.69119629 -206.25097656 74.14575195 C-212.2117414 69.63303416 -218.10640556 65.03685581 -223.99560547 60.43139648 C-229.69407561 55.98620022 -235.45788898 51.63476611 -241.25 47.3125 C-247.51380759 42.63717062 -253.72388662 37.90986741 -259.85131836 33.05737305 C-264.30402661 29.53434399 -268.79950842 26.07041869 -273.3125 22.625 C-274.01616699 22.08738037 -274.71983398 21.54976074 -275.44482422 20.99584961 C-279.19708225 18.1315663 -282.95537313 15.27543873 -286.71875 12.42578125 C-287.48791748 11.8416748 -288.25708496 11.25756836 -289.04956055 10.65576172 C-290.52042577 9.53892609 -291.9931467 8.42452875 -293.46801758 7.31298828 C-294.13470459 6.80622559 -294.8013916 6.29946289 -295.48828125 5.77734375 C-296.36286987 5.11593384 -296.36286987 5.11593384 -297.25512695 4.44116211 C-299.30398554 2.7489259 -301.13127827 0.88748058 -303 -1 C-264.68846734 -1.17316957 -226.37690388 -1.33582939 -188.0652673 -1.48431293 C-183.54644092 -1.50183549 -179.02761489 -1.51944543 -174.50878906 -1.53710938 C-173.60913864 -1.54062461 -172.70948821 -1.54413985 -171.78257565 -1.5477616 C-157.19864939 -1.60495448 -142.61476248 -1.66923286 -128.03087778 -1.736111 C-113.07630962 -1.80453199 -98.12172461 -1.86538223 -83.1670965 -1.91914403 C-73.93272504 -1.95258199 -64.69841808 -1.99198753 -55.46410523 -2.03892837 C-49.1393864 -2.07051426 -42.81466645 -2.09477369 -36.4898956 -2.11317255 C-32.83601941 -2.1240212 -29.18223254 -2.13819485 -25.52840996 -2.16103554 C-21.57482403 -2.1856661 -17.62129043 -2.19491735 -13.66763306 -2.20254517 C-12.5022833 -2.2122618 -11.33693355 -2.22197843 -10.13627017 -2.2319895 C-9.083786 -2.2314908 -8.03130183 -2.2309921 -6.94692421 -2.23047829 C-6.0333171 -2.23427549 -5.11970998 -2.23807269 -4.1784178 -2.24198496 C-2 -2 -2 -2 0 0 Z " fill="#EFEFEF" transform="translate(500,172)"/>
<path d="M0 0 C0.33 0 0.66 0 1 0 C0.99333817 0.59007843 0.98667633 1.18015686 0.97981262 1.78811646 C0.91230517 8.05237246 0.86773346 14.31652178 0.83520508 20.58105469 C0.82032043 22.90433971 0.8000062 25.22759769 0.77368164 27.55078125 C0.60347187 42.98313379 1.39481238 57.78098721 4 73 C4.18296631 74.12180664 4.36593262 75.24361328 4.55444336 76.39941406 C12.35886958 121.22036468 34.09832846 161.7948424 63.45703125 196.02734375 C65.99779401 198.99742126 68.50359184 201.99265732 71 205 C68 205 68 205 66.34375 203.7421875 C25.42357196 162.3018377 -1.2587628 99.39600306 -1.1328125 41.171875 C-1.13376923 40.17923645 -1.13472595 39.1865979 -1.13571167 38.16387939 C-1.1363873 36.08321061 -1.13457642 34.00253964 -1.13037109 31.921875 C-1.1249911 28.74474364 -1.13034882 25.56775216 -1.13671875 22.390625 C-1.1360583 20.35937469 -1.13477784 18.32812447 -1.1328125 16.296875 C-1.13483673 15.35301941 -1.13686096 14.40916382 -1.13894653 13.43670654 C-1.12264508 8.84323788 -0.9429978 4.51927247 0 0 Z " fill="#3E7A4D" transform="translate(1,227)"/>
<path d="M0 0 C0.99 0.33 1.98 0.66 3 1 C-1.29 5.29 -5.58 9.58 -10 14 C-10.66 13.67 -11.32 13.34 -12 13 C-10.56354149 11.39490066 -9.12579294 9.79095576 -7.6875 8.1875 C-6.88699219 7.29417969 -6.08648437 6.40085937 -5.26171875 5.48046875 C-3.54775419 3.60073214 -1.82122396 1.77407253 0 0 Z " fill="#AA1319" transform="translate(72,77)"/>
</svg>
